<svg width="40" height="40" viewBox="0 0 40 40" fill="none" xmlns="http://www.w3.org/2000/svg">
<path fill-rule="evenodd" clip-rule="evenodd" d="M10 10V15C7.32912 15 5 16.9409 5 19.5833V35.4167C5 38.0591 7.32912 40 10 40H30C32.6709 40 35 38.0591 35 35.4167V19.5833C35 16.9409 32.6709 15 30 15V10C30 4.47715 25.5228 0 20 0C14.4772 0 10 4.47715 10 10ZM25 10V15H15V10C15 7.23858 17.2386 5 20 5C22.7614 5 25 7.23858 25 10ZM10 35V20H30V35H10ZM22.5 27.5C22.5 28.8807 21.3807 30 20 30C18.6193 30 17.5 28.8807 17.5 27.5C17.5 26.1193 18.6193 25 20 25C21.3807 25 22.5 26.1193 22.5 27.5Z" fill="white"/>
</svg>
